<svg xmlns="http://www.w3.org/2000/svg">
    <symbol id="icon-logo" viewBox="0 0 332 99" fill="none" xmlns="http://www.w3.org/2000/svg">
        <line x1="153.5" y1="5" x2="153.5" y2="45" stroke="white" />
        <path d="M130 17.5V25H137.5M130 38.5C122.544 38.5 116.5 32.4558 116.5 25C116.5 17.5442 122.544 11.5 130 11.5C137.456 11.5 143.5 17.5442 143.5 25C143.5 32.4558 137.456 38.5 130 38.5Z" stroke="white" stroke-linecap="round" stroke-linejoin="round" />
        <path d="M171.824 37.192C170.16 37.192 168.56 36.9253 167.024 36.392C165.509 35.8373 164.336 35.1333 163.504 34.28L164.432 32.456C165.221 33.224 166.277 33.8747 167.6 34.408C168.944 34.92 170.352 35.176 171.824 35.176C173.232 35.176 174.373 35.0053 175.248 34.664C176.144 34.3013 176.795 33.8213 177.2 33.224C177.627 32.6267 177.84 31.9653 177.84 31.24C177.84 30.3653 177.584 29.6613 177.072 29.128C176.581 28.5947 175.931 28.1787 175.12 27.88C174.309 27.56 173.413 27.2827 172.432 27.048C171.451 26.8133 170.469 26.568 169.488 26.312C168.507 26.0347 167.6 25.672 166.768 25.224C165.957 24.776 165.296 24.1893 164.784 23.464C164.293 22.7173 164.048 21.7467 164.048 20.552C164.048 19.4427 164.336 18.4293 164.912 17.512C165.509 16.5733 166.416 15.8267 167.632 15.272C168.848 14.696 170.405 14.408 172.304 14.408C173.563 14.408 174.811 14.5893 176.048 14.952C177.285 15.2933 178.352 15.7733 179.248 16.392L178.448 18.28C177.488 17.64 176.464 17.1707 175.376 16.872C174.309 16.5733 173.275 16.424 172.272 16.424C170.928 16.424 169.819 16.6053 168.944 16.968C168.069 17.3307 167.419 17.8213 166.992 18.44C166.587 19.0373 166.384 19.72 166.384 20.488C166.384 21.3627 166.629 22.0667 167.12 22.6C167.632 23.1333 168.293 23.5493 169.104 23.848C169.936 24.1467 170.843 24.4133 171.824 24.648C172.805 24.8827 173.776 25.1387 174.736 25.416C175.717 25.6933 176.613 26.056 177.424 26.504C178.256 26.9307 178.917 27.5067 179.408 28.232C179.92 28.9573 180.176 29.9067 180.176 31.08C180.176 32.168 179.877 33.1813 179.28 34.12C178.683 35.0373 177.765 35.784 176.528 36.36C175.312 36.9147 173.744 37.192 171.824 37.192ZM191.512 37.192C189.848 37.192 188.248 36.9253 186.712 36.392C185.197 35.8373 184.024 35.1333 183.192 34.28L184.12 32.456C184.909 33.224 185.965 33.8747 187.288 34.408C188.632 34.92 190.04 35.176 191.512 35.176C192.92 35.176 194.061 35.0053 194.936 34.664C195.832 34.3013 196.482 33.8213 196.888 33.224C197.314 32.6267 197.528 31.9653 197.528 31.24C197.528 30.3653 197.272 29.6613 196.76 29.128C196.269 28.5947 195.618 28.1787 194.808 27.88C193.997 27.56 193.101 27.2827 192.12 27.048C191.138 26.8133 190.157 26.568 189.176 26.312C188.194 26.0347 187.288 25.672 186.456 25.224C185.645 24.776 184.984 24.1893 184.472 23.464C183.981 22.7173 183.736 21.7467 183.736 20.552C183.736 19.4427 184.024 18.4293 184.6 17.512C185.197 16.5733 186.104 15.8267 187.32 15.272C188.536 14.696 190.093 14.408 191.992 14.408C193.25 14.408 194.498 14.5893 195.736 14.952C196.973 15.2933 198.04 15.7733 198.936 16.392L198.135 18.28C197.176 17.64 196.152 17.1707 195.064 16.872C193.997 16.5733 192.962 16.424 191.96 16.424C190.616 16.424 189.506 16.6053 188.632 16.968C187.757 17.3307 187.106 17.8213 186.68 18.44C186.274 19.0373 186.072 19.72 186.072 20.488C186.072 21.3627 186.317 22.0667 186.808 22.6C187.32 23.1333 187.981 23.5493 188.792 23.848C189.624 24.1467 190.53 24.4133 191.512 24.648C192.493 24.8827 193.464 25.1387 194.424 25.416C195.405 25.6933 196.301 26.056 197.112 26.504C197.944 26.9307 198.605 27.5067 199.096 28.232C199.608 28.9573 199.864 29.9067 199.864 31.08C199.864 32.168 199.565 33.1813 198.968 34.12C198.37 35.0373 197.453 35.784 196.216 36.36C195 36.9147 193.432 37.192 191.512 37.192ZM209.062 37V16.648H201.191V14.6H219.303V16.648H211.431V37H209.062Z" fill="white" />
        <path d="M14.792 86.16C13.128 86.16 11.5493 85.8827 10.056 85.328C8.584 84.752 7.44267 84.016 6.632 83.12L7.368 81.904C8.136 82.6933 9.18133 83.3653 10.504 83.92C11.848 84.4533 13.2667 84.72 14.76 84.72C16.2533 84.72 17.4693 84.528 18.408 84.144C19.368 83.7387 20.072 83.2053 20.52 82.544C20.9893 81.8827 21.224 81.1467 21.224 80.336C21.224 79.376 20.968 78.608 20.456 78.032C19.944 77.456 19.272 76.9973 18.44 76.656C17.608 76.3147 16.7013 76.0267 15.72 75.792C14.7387 75.5573 13.7467 75.312 12.744 75.056C11.7413 74.7787 10.824 74.4267 9.992 74C9.16 73.5733 8.488 72.9973 7.976 72.272C7.48533 71.5253 7.24 70.5653 7.24 69.392C7.24 68.3253 7.51733 67.344 8.072 66.448C8.62667 65.552 9.49067 64.8267 10.664 64.272C11.8373 63.7173 13.3413 63.44 15.176 63.44C16.4133 63.44 17.6293 63.6213 18.824 63.984C20.04 64.3467 21.0747 64.8373 21.928 65.456L21.32 66.768C20.3813 66.128 19.368 65.6587 18.28 65.36C17.2133 65.04 16.1787 64.88 15.176 64.88C13.7467 64.88 12.5627 65.0827 11.624 65.488C10.6853 65.8933 9.992 66.4373 9.544 67.12C9.096 67.7813 8.872 68.528 8.872 69.36C8.872 70.32 9.11733 71.088 9.608 71.664C10.12 72.24 10.792 72.6987 11.624 73.04C12.456 73.3813 13.3733 73.6693 14.376 73.904C15.3787 74.1387 16.3707 74.3947 17.352 74.672C18.3333 74.928 19.24 75.2693 20.072 75.696C20.904 76.1227 21.576 76.6987 22.088 77.424C22.6 78.1493 22.856 79.088 22.856 80.24C22.856 81.2853 22.568 82.2667 21.992 83.184C21.416 84.08 20.5307 84.8053 19.336 85.36C18.1627 85.8933 16.648 86.16 14.792 86.16ZM24.66 86L34.964 63.6H36.596L46.9 86H45.14L35.412 64.624H36.116L26.42 86H24.66ZM28.436 79.696L28.98 78.32H42.388L42.932 79.696H28.436ZM56.0823 86L46.0983 63.6H47.8903L57.4263 85.008H56.4343L66.0023 63.6H67.6983L57.7143 86H56.0823ZM72.7503 73.904H84.8783V75.344H72.7503V73.904ZM72.9423 84.528H86.7663V86H71.3103V63.6H86.2863V65.072H72.9423V84.528ZM106.823 86.16C105.159 86.16 103.581 85.8827 102.087 85.328C100.615 84.752 99.4739 84.016 98.6633 83.12L99.3993 81.904C100.167 82.6933 101.213 83.3653 102.535 83.92C103.879 84.4533 105.298 84.72 106.791 84.72C108.285 84.72 109.501 84.528 110.439 84.144C111.399 83.7387 112.103 83.2053 112.551 82.544C113.021 81.8827 113.255 81.1467 113.255 80.336C113.255 79.376 112.999 78.608 112.487 78.032C111.975 77.456 111.303 76.9973 110.471 76.656C109.639 76.3147 108.733 76.0267 107.751 75.792C106.77 75.5573 105.778 75.312 104.775 75.056C103.773 74.7787 102.855 74.4267 102.023 74C101.191 73.5733 100.519 72.9973 100.007 72.272C99.5166 71.5253 99.2713 70.5653 99.2713 69.392C99.2713 68.3253 99.5486 67.344 100.103 66.448C100.658 65.552 101.522 64.8267 102.695 64.272C103.869 63.7173 105.373 63.44 107.207 63.44C108.445 63.44 109.661 63.6213 110.855 63.984C112.071 64.3467 113.106 64.8373 113.959 65.456L113.351 66.768C112.413 66.128 111.399 65.6587 110.311 65.36C109.245 65.04 108.21 64.88 107.207 64.88C105.778 64.88 104.594 65.0827 103.655 65.488C102.717 65.8933 102.023 66.4373 101.575 67.12C101.127 67.7813 100.903 68.528 100.903 69.36C100.903 70.32 101.149 71.088 101.639 71.664C102.151 72.24 102.823 72.6987 103.655 73.04C104.487 73.3813 105.405 73.6693 106.407 73.904C107.41 74.1387 108.402 74.3947 109.383 74.672C110.365 74.928 111.271 75.2693 112.103 75.696C112.935 76.1227 113.607 76.6987 114.119 77.424C114.631 78.1493 114.887 79.088 114.887 80.24C114.887 81.2853 114.599 82.2667 114.023 83.184C113.447 84.08 112.562 84.8053 111.367 85.36C110.194 85.8933 108.679 86.16 106.823 86.16ZM121.875 73.904H134.003V75.344H121.875V73.904ZM122.067 84.528H135.891V86H120.435V63.6H135.411V65.072H122.067V84.528ZM141.842 86V63.6H143.474V84.528H156.37V86H141.842ZM160.56 86V63.6H162.192V84.528H175.088V86H160.56ZM180.719 73.904H192.847V75.344H180.719V73.904ZM180.911 84.528H194.735V86H179.279V63.6H194.255V65.072H180.911V84.528ZM200.685 86V63.6H208.717C210.595 63.6 212.205 63.8987 213.549 64.496C214.893 65.0933 215.928 65.9573 216.653 67.088C217.379 68.1973 217.741 69.552 217.741 71.152C217.741 72.7093 217.379 74.0533 216.653 75.184C215.928 76.2933 214.893 77.1573 213.549 77.776C212.205 78.3733 210.595 78.672 208.717 78.672H201.581L202.317 77.904V86H200.685ZM216.237 86L210.413 77.872H212.269L218.093 86H216.237ZM202.317 78L201.581 77.232H208.717C211.128 77.232 212.952 76.6987 214.189 75.632C215.448 74.5653 216.077 73.072 216.077 71.152C216.077 69.2107 215.448 67.7173 214.189 66.672C212.952 65.6053 211.128 65.072 208.717 65.072H201.581L202.317 64.272V78ZM229.605 86.16C227.941 86.16 226.362 85.8827 224.869 85.328C223.397 84.752 222.255 84.016 221.445 83.12L222.181 81.904C222.949 82.6933 223.994 83.3653 225.317 83.92C226.661 84.4533 228.079 84.72 229.573 84.72C231.066 84.72 232.282 84.528 233.221 84.144C234.181 83.7387 234.885 83.2053 235.333 82.544C235.802 81.8827 236.037 81.1467 236.037 80.336C236.037 79.376 235.781 78.608 235.269 78.032C234.757 77.456 234.085 76.9973 233.253 76.656C232.421 76.3147 231.514 76.0267 230.533 75.792C229.551 75.5573 228.559 75.312 227.557 75.056C226.554 74.7787 225.637 74.4267 224.805 74C223.973 73.5733 223.301 72.9973 222.789 72.272C222.298 71.5253 222.053 70.5653 222.053 69.392C222.053 68.3253 222.33 67.344 222.885 66.448C223.439 65.552 224.303 64.8267 225.477 64.272C226.65 63.7173 228.154 63.44 229.989 63.44C231.226 63.44 232.442 63.6213 233.637 63.984C234.853 64.3467 235.887 64.8373 236.741 65.456L236.133 66.768C235.194 66.128 234.181 65.6587 233.093 65.36C232.026 65.04 230.991 64.88 229.989 64.88C228.559 64.88 227.375 65.0827 226.437 65.488C225.498 65.8933 224.805 66.4373 224.357 67.12C223.909 67.7813 223.685 68.528 223.685 69.36C223.685 70.32 223.93 71.088 224.421 71.664C224.933 72.24 225.605 72.6987 226.437 73.04C227.269 73.3813 228.186 73.6693 229.189 73.904C230.191 74.1387 231.183 74.3947 232.165 74.672C233.146 74.928 234.053 75.2693 234.885 75.696C235.717 76.1227 236.389 76.6987 236.901 77.424C237.413 78.1493 237.669 79.088 237.669 80.24C237.669 81.2853 237.381 82.2667 236.805 83.184C236.229 84.08 235.343 84.8053 234.149 85.36C232.975 85.8933 231.461 86.16 229.605 86.16ZM255.723 86V65.072H247.659V63.6H265.419V65.072H257.355V86H255.723ZM269.467 86V63.6H271.099V86H269.467ZM278.904 86V63.6H280.28L290.68 81.552H289.944L300.312 63.6H301.656L301.688 86H300.088L300.056 66.064H300.504L290.68 83.024H289.88L280.024 66.064H280.504V86H278.904ZM310.938 73.904H323.066V75.344H310.938V73.904ZM311.13 84.528H324.954V86H309.498V63.6H324.474V65.072H311.13V84.528Z" fill="white" />
    </symbol>
    <symbol id="icon-calendar" viewBox="0 0 24 24" fill="none" xmlns="http://www.w3.org/2000/svg">
        <path d="M8 4H7.2002C6.08009 4 5.51962 4 5.0918 4.21799C4.71547 4.40973 4.40973 4.71547 4.21799 5.0918C4 5.51962 4 6.08009 4 7.2002V8M8 4H16M8 4V2M16 4H16.8002C17.9203 4 18.4796 4 18.9074 4.21799C19.2837 4.40973 19.5905 4.71547 19.7822 5.0918C20 5.5192 20 6.07899 20 7.19691V8M16 4V2M4 8V16.8002C4 17.9203 4 18.4801 4.21799 18.9079C4.40973 19.2842 4.71547 19.5905 5.0918 19.7822C5.5192 20 6.07899 20 7.19691 20H16.8031C17.921 20 18.48 20 18.9074 19.7822C19.2837 19.5905 19.5905 19.2842 19.7822 18.9079C20 18.4805 20 17.9215 20 16.8036V8M4 8H20M16 16H16.002L16.002 16.002L16 16.002V16ZM12 16H12.002L12.002 16.002L12 16.002V16ZM8 16H8.002L8.00195 16.002L8 16.002V16ZM16.002 12V12.002L16 12.002V12H16.002ZM12 12H12.002L12.002 12.002L12 12.002V12ZM8 12H8.002L8.00195 12.002L8 12.002V12Z" stroke="white" stroke-width="2" stroke-linecap="round" stroke-linejoin="round" />
    </symbol>
    <symbol id="icon-delete" viewBox="0 0 24 24" fill="none" xmlns="http://www.w3.org/2000/svg">
        <path d="M14 11V17" stroke="white" stroke-width="2" stroke-linecap="round" stroke-linejoin="round" />
        <path d="M10 11V17" stroke="white" stroke-width="2" stroke-linecap="round" stroke-linejoin="round" />
        <path d="M6 7V19C6 20.1046 6.89543 21 8 21H16C17.1046 21 18 20.1046 18 19V7" stroke="white" stroke-width="2" stroke-linecap="round" stroke-linejoin="round" />
        <path d="M4 7H20" stroke="white" stroke-width="2" stroke-linecap="round" stroke-linejoin="round" />
        <path d="M7 7L9 3H15L17 7" stroke="white" stroke-width="2" stroke-linecap="round" stroke-linejoin="round" />
    </symbol>
    <symbol id="icon-edit" viewBox="0 0 24 24" fill="none" xmlns="http://www.w3.org/2000/svg">
        <path d="M21 13V17C21 19.7614 18.7614 22 16 22H8C5.23858 22 3 19.7614 3 17V9C3 6.23858 5.23858 4 8 4H12" stroke="white" stroke-width="2" stroke-linecap="round" />
        <path d="M17.1721 3.28601C17.9525 2.50437 19.2184 2.50389 19.9994 3.28494L21.4887 4.77419C22.2631 5.54858 22.2711 6.80222 21.5067 7.58649L14.4467 14.8301C13.8823 15.4092 13.1082 15.7357 12.2998 15.7357L10.6026 15.7356C9.7498 15.7356 9.06872 15.0246 9.10459 14.1719L9.17869 12.4104C9.21028 11.6592 9.52251 10.9472 10.0536 10.4153L17.1721 3.28601Z" stroke="white" stroke-width="2" />
        <path d="M15.7297 4.86846L19.7437 8.88245" stroke="white" stroke-width="2" stroke-linecap="round" stroke-linejoin="round" />
    </symbol>
</svg>
